<svg width="707" height="100" viewBox="0 0 707 100" fill="none" xmlns="http://www.w3.org/2000/svg">
<g clip-path="url(#clip0_36_715)">
<path d="M33.3333 8.33337V20.8334" stroke="#167ABC" stroke-width="6" stroke-miterlimit="10" stroke-linecap="round" stroke-linejoin="round"/>
<path d="M66.6667 8.33337V20.8334" stroke="#167ABC" stroke-width="6" stroke-miterlimit="10" stroke-linecap="round" stroke-linejoin="round"/>
<path d="M14.5833 37.8749H85.4166" stroke="#167ABC" stroke-width="6" stroke-miterlimit="10" stroke-linecap="round" stroke-linejoin="round"/>
<path d="M80.0416 65.7083L65.292 80.4583C64.7087 81.0416 64.1666 82.1249 64.0416 82.9166L63.25 88.5416C62.9583 90.5833 64.375 92.0004 66.4166 91.7087L72.0416 90.9166C72.8333 90.7916 73.9583 90.2499 74.5 89.6666L89.2504 74.917C91.792 72.3754 93.0004 69.417 89.2504 65.667C85.542 61.9587 82.5833 63.1666 80.0416 65.7083Z" stroke="#167ABC" stroke-width="6" stroke-miterlimit="10" stroke-linecap="round" stroke-linejoin="round"/>
<path d="M77.917 67.8334C79.167 72.3334 82.667 75.8334 87.167 77.0834" stroke="#167ABC" stroke-width="6" stroke-miterlimit="10" stroke-linecap="round" stroke-linejoin="round"/>
<path d="M50 91.6667H33.3333C18.75 91.6667 12.5 83.3334 12.5 70.8334V35.4167C12.5 22.9167 18.75 14.5834 33.3333 14.5834H66.6667C81.25 14.5834 87.5 22.9167 87.5 35.4167V50" stroke="#167ABC" stroke-width="6" stroke-miterlimit="10" stroke-linecap="round" stroke-linejoin="round"/>
<path d="M49.9812 57.0834H50.0187" stroke="#167ABC" stroke-width="9" stroke-linecap="round" stroke-linejoin="round"/>
<path d="M34.5596 57.0834H34.597" stroke="#167ABC" stroke-width="9" stroke-linecap="round" stroke-linejoin="round"/>
<path d="M34.5596 69.5834H34.597" stroke="#167ABC" stroke-width="9" stroke-linecap="round" stroke-linejoin="round"/>
<path d="M149.608 33.5227V26.4545H186.744V33.5227H172.358V73H163.994V33.5227H149.608ZM202.335 26.4545V73H193.903V26.4545H202.335ZM236.761 39.25C236.549 37.2652 235.655 35.7197 234.08 34.6136C232.519 33.5076 230.489 32.9545 227.989 32.9545C226.231 32.9545 224.723 33.2197 223.466 33.75C222.208 34.2803 221.246 35 220.58 35.9091C219.913 36.8182 219.572 37.8561 219.557 39.0227C219.557 39.9924 219.777 40.8333 220.216 41.5455C220.67 42.2576 221.284 42.8636 222.057 43.3636C222.83 43.8485 223.686 44.2576 224.625 44.5909C225.564 44.9242 226.511 45.2045 227.466 45.4318L231.83 46.5227C233.587 46.9318 235.277 47.4848 236.898 48.1818C238.534 48.8788 239.996 49.7576 241.284 50.8182C242.587 51.8788 243.617 53.1591 244.375 54.6591C245.133 56.1591 245.511 57.9167 245.511 59.9318C245.511 62.6591 244.814 65.0606 243.42 67.1364C242.027 69.197 240.011 70.8106 237.375 71.9773C234.754 73.1288 231.58 73.7045 227.852 73.7045C224.231 73.7045 221.087 73.1439 218.42 72.0227C215.769 70.9015 213.693 69.2652 212.193 67.1136C210.708 64.9621 209.905 62.3409 209.784 59.25H218.08C218.201 60.8712 218.701 62.2197 219.58 63.2955C220.458 64.3712 221.602 65.1742 223.011 65.7045C224.436 66.2348 226.027 66.5 227.784 66.5C229.617 66.5 231.223 66.2273 232.602 65.6818C233.996 65.1212 235.087 64.3485 235.875 63.3636C236.663 62.3636 237.064 61.197 237.08 59.8636C237.064 58.6515 236.708 57.6515 236.011 56.8636C235.314 56.0606 234.337 55.3939 233.08 54.8636C231.837 54.3182 230.383 53.8333 228.716 53.4091L223.42 52.0455C219.587 51.0606 216.557 49.5682 214.33 47.5682C212.117 45.553 211.011 42.8788 211.011 39.5455C211.011 36.803 211.754 34.4015 213.239 32.3409C214.739 30.2803 216.777 28.6818 219.352 27.5455C221.928 26.3939 224.845 25.8182 228.102 25.8182C231.405 25.8182 234.299 26.3939 236.784 27.5455C239.284 28.6818 241.246 30.2652 242.67 32.2955C244.095 34.3106 244.83 36.6288 244.875 39.25H236.761ZM278.324 39.25C278.112 37.2652 277.218 35.7197 275.642 34.6136C274.081 33.5076 272.051 32.9545 269.551 32.9545C267.794 32.9545 266.286 33.2197 265.028 33.75C263.771 34.2803 262.809 35 262.142 35.9091C261.475 36.8182 261.134 37.8561 261.119 39.0227C261.119 39.9924 261.339 40.8333 261.778 41.5455C262.233 42.2576 262.847 42.8636 263.619 43.3636C264.392 43.8485 265.248 44.2576 266.188 44.5909C267.127 44.9242 268.074 45.2045 269.028 45.4318L273.392 46.5227C275.15 46.9318 276.839 47.4848 278.46 48.1818C280.097 48.8788 281.559 49.7576 282.847 50.8182C284.15 51.8788 285.18 53.1591 285.938 54.6591C286.695 56.1591 287.074 57.9167 287.074 59.9318C287.074 62.6591 286.377 65.0606 284.983 67.1364C283.589 69.197 281.574 70.8106 278.938 71.9773C276.316 73.1288 273.142 73.7045 269.415 73.7045C265.794 73.7045 262.65 73.1439 259.983 72.0227C257.331 70.9015 255.256 69.2652 253.756 67.1136C252.271 64.9621 251.468 62.3409 251.347 59.25H259.642C259.763 60.8712 260.263 62.2197 261.142 63.2955C262.021 64.3712 263.165 65.1742 264.574 65.7045C265.998 66.2348 267.589 66.5 269.347 66.5C271.18 66.5 272.786 66.2273 274.165 65.6818C275.559 65.1212 276.65 64.3485 277.438 63.3636C278.225 62.3636 278.627 61.197 278.642 59.8636C278.627 58.6515 278.271 57.6515 277.574 56.8636C276.877 56.0606 275.9 55.3939 274.642 54.8636C273.4 54.3182 271.945 53.8333 270.278 53.4091L264.983 52.0455C261.15 51.0606 258.119 49.5682 255.892 47.5682C253.68 45.553 252.574 42.8788 252.574 39.5455C252.574 36.803 253.316 34.4015 254.801 32.3409C256.301 30.2803 258.339 28.6818 260.915 27.5455C263.491 26.3939 266.407 25.8182 269.665 25.8182C272.968 25.8182 275.862 26.3939 278.347 27.5455C280.847 28.6818 282.809 30.2652 284.233 32.2955C285.657 34.3106 286.392 36.6288 286.438 39.25H278.324ZM308.42 33.5227V26.4545H345.557V33.5227H331.17V73H322.807V33.5227H308.42ZM352.352 73V38.0909H360.58V73H352.352ZM356.489 33.1364C355.186 33.1364 354.064 32.7045 353.125 31.8409C352.186 30.9621 351.716 29.9091 351.716 28.6818C351.716 27.4394 352.186 26.3864 353.125 25.5227C354.064 24.6439 355.186 24.2045 356.489 24.2045C357.807 24.2045 358.928 24.6439 359.852 25.5227C360.792 26.3864 361.261 27.4394 361.261 28.6818C361.261 29.9091 360.792 30.9621 359.852 31.8409C358.928 32.7045 357.807 33.1364 356.489 33.1364ZM369.04 73V38.0909H376.903V44.0227H377.312C378.04 42.0227 379.244 40.4621 380.926 39.3409C382.608 38.2045 384.616 37.6364 386.949 37.6364C389.312 37.6364 391.305 38.2121 392.926 39.3636C394.563 40.5 395.714 42.053 396.381 44.0227H396.744C397.517 42.0833 398.82 40.5379 400.653 39.3864C402.502 38.2197 404.691 37.6364 407.222 37.6364C410.434 37.6364 413.055 38.6515 415.085 40.6818C417.116 42.7121 418.131 45.6742 418.131 49.5682V73H409.881V50.8409C409.881 48.6742 409.305 47.0909 408.153 46.0909C407.002 45.0758 405.593 44.5682 403.926 44.5682C401.941 44.5682 400.388 45.1894 399.267 46.4318C398.161 47.6591 397.608 49.2576 397.608 51.2273V73H389.54V50.5C389.54 48.697 388.994 47.2576 387.903 46.1818C386.828 45.1061 385.419 44.5682 383.676 44.5682C382.494 44.5682 381.419 44.8712 380.449 45.4773C379.479 46.0682 378.706 46.9091 378.131 48C377.555 49.0758 377.267 50.3333 377.267 51.7727V73H369.04ZM441.932 73.6818C438.432 73.6818 435.409 72.9545 432.864 71.5C430.333 70.0303 428.386 67.9545 427.023 65.2727C425.659 62.5758 424.977 59.4015 424.977 55.75C424.977 52.1591 425.659 49.0076 427.023 46.2955C428.402 43.5682 430.326 41.447 432.795 39.9318C435.265 38.4015 438.167 37.6364 441.5 37.6364C443.652 37.6364 445.682 37.9848 447.591 38.6818C449.515 39.3636 451.212 40.4242 452.682 41.8636C454.167 43.303 455.333 45.1364 456.182 47.3636C457.03 49.5758 457.455 52.2121 457.455 55.2727V57.7955H428.841V52.25H449.568C449.553 50.6742 449.212 49.2727 448.545 48.0455C447.879 46.803 446.947 45.8258 445.75 45.1136C444.568 44.4015 443.189 44.0455 441.614 44.0455C439.932 44.0455 438.455 44.4545 437.182 45.2727C435.909 46.0758 434.917 47.1364 434.205 48.4545C433.508 49.7576 433.152 51.1894 433.136 52.75V57.5909C433.136 59.6212 433.508 61.3636 434.25 62.8182C434.992 64.2576 436.03 65.3636 437.364 66.1364C438.697 66.8939 440.258 67.2727 442.045 67.2727C443.242 67.2727 444.326 67.1061 445.295 66.7727C446.265 66.4242 447.106 65.9167 447.818 65.25C448.53 64.5833 449.068 63.7576 449.432 62.7727L457.114 63.6364C456.629 65.6667 455.705 67.4394 454.341 68.9545C452.992 70.4545 451.265 71.6212 449.159 72.4545C447.053 73.2727 444.644 73.6818 441.932 73.6818ZM478.608 33.5227V26.4545H515.744V33.5227H501.358V73H492.994V33.5227H478.608ZM525.744 73L515.881 38.0909H524.267L530.403 62.6364H530.722L536.994 38.0909H545.29L551.562 62.5H551.903L557.949 38.0909H566.358L556.472 73H547.903L541.358 49.4091H540.881L534.335 73H525.744ZM572.102 73V38.0909H580.33V73H572.102ZM576.239 33.1364C574.936 33.1364 573.814 32.7045 572.875 31.8409C571.936 30.9621 571.466 29.9091 571.466 28.6818C571.466 27.4394 571.936 26.3864 572.875 25.5227C573.814 24.6439 574.936 24.2045 576.239 24.2045C577.557 24.2045 578.678 24.6439 579.602 25.5227C580.542 26.3864 581.011 27.4394 581.011 28.6818C581.011 29.9091 580.542 30.9621 579.602 31.8409C578.678 32.7045 577.557 33.1364 576.239 33.1364ZM616.381 47.3182L608.881 48.1364C608.669 47.3788 608.297 46.6667 607.767 46C607.252 45.3333 606.555 44.7955 605.676 44.3864C604.797 43.9773 603.722 43.7727 602.449 43.7727C600.737 43.7727 599.297 44.1439 598.131 44.8864C596.979 45.6288 596.411 46.5909 596.426 47.7727C596.411 48.7879 596.782 49.6136 597.54 50.25C598.313 50.8864 599.585 51.4091 601.358 51.8182L607.312 53.0909C610.616 53.803 613.07 54.9318 614.676 56.4773C616.297 58.0227 617.116 60.0455 617.131 62.5455C617.116 64.7424 616.472 66.6818 615.199 68.3636C613.941 70.0303 612.191 71.3333 609.949 72.2727C607.706 73.2121 605.131 73.6818 602.222 73.6818C597.949 73.6818 594.509 72.7879 591.903 71C589.297 69.197 587.744 66.6894 587.244 63.4773L595.267 62.7045C595.631 64.2803 596.403 65.4697 597.585 66.2727C598.767 67.0758 600.305 67.4773 602.199 67.4773C604.153 67.4773 605.722 67.0758 606.903 66.2727C608.1 65.4697 608.699 64.4773 608.699 63.2955C608.699 62.2955 608.313 61.4697 607.54 60.8182C606.782 60.1667 605.6 59.6667 603.994 59.3182L598.04 58.0682C594.691 57.3712 592.214 56.197 590.608 54.5455C589.002 52.8788 588.206 50.7727 588.222 48.2273C588.206 46.0758 588.79 44.2121 589.972 42.6364C591.169 41.0455 592.828 39.8182 594.949 38.9545C597.085 38.0758 599.547 37.6364 602.335 37.6364C606.426 37.6364 609.646 38.5076 611.994 40.25C614.358 41.9924 615.82 44.3485 616.381 47.3182ZM641.347 38.0909V44.4545H621.278V38.0909H641.347ZM626.233 29.7273H634.46V62.5C634.46 63.6061 634.627 64.4545 634.96 65.0455C635.309 65.6212 635.763 66.0152 636.324 66.2273C636.884 66.4394 637.506 66.5455 638.188 66.5455C638.703 66.5455 639.172 66.5076 639.597 66.4318C640.036 66.3561 640.369 66.2879 640.597 66.2273L641.983 72.6591C641.544 72.8106 640.915 72.9773 640.097 73.1591C639.294 73.3409 638.309 73.447 637.142 73.4773C635.081 73.5379 633.225 73.2273 631.574 72.5455C629.922 71.8485 628.612 70.7727 627.642 69.3182C626.688 67.8636 626.218 66.0455 626.233 63.8636V29.7273ZM663.307 73.6818C659.807 73.6818 656.784 72.9545 654.239 71.5C651.708 70.0303 649.761 67.9545 648.398 65.2727C647.034 62.5758 646.352 59.4015 646.352 55.75C646.352 52.1591 647.034 49.0076 648.398 46.2955C649.777 43.5682 651.701 41.447 654.17 39.9318C656.64 38.4015 659.542 37.6364 662.875 37.6364C665.027 37.6364 667.057 37.9848 668.966 38.6818C670.89 39.3636 672.587 40.4242 674.057 41.8636C675.542 43.303 676.708 45.1364 677.557 47.3636C678.405 49.5758 678.83 52.2121 678.83 55.2727V57.7955H650.216V52.25H670.943C670.928 50.6742 670.587 49.2727 669.92 48.0455C669.254 46.803 668.322 45.8258 667.125 45.1136C665.943 44.4015 664.564 44.0455 662.989 44.0455C661.307 44.0455 659.83 44.4545 658.557 45.2727C657.284 46.0758 656.292 47.1364 655.58 48.4545C654.883 49.7576 654.527 51.1894 654.511 52.75V57.5909C654.511 59.6212 654.883 61.3636 655.625 62.8182C656.367 64.2576 657.405 65.3636 658.739 66.1364C660.072 66.8939 661.633 67.2727 663.42 67.2727C664.617 67.2727 665.701 67.1061 666.67 66.7727C667.64 66.4242 668.481 65.9167 669.193 65.25C669.905 64.5833 670.443 63.7576 670.807 62.7727L678.489 63.6364C678.004 65.6667 677.08 67.4394 675.716 68.9545C674.367 70.4545 672.64 71.6212 670.534 72.4545C668.428 73.2727 666.019 73.6818 663.307 73.6818ZM685.79 73V38.0909H693.767V43.9091H694.131C694.767 41.8939 695.858 40.3409 697.403 39.25C698.964 38.1439 700.744 37.5909 702.744 37.5909C703.199 37.5909 703.706 37.6136 704.267 37.6591C704.843 37.6894 705.32 37.7424 705.699 37.8182V45.3864C705.35 45.2652 704.797 45.1591 704.04 45.0682C703.297 44.9621 702.578 44.9091 701.881 44.9091C700.381 44.9091 699.032 45.2348 697.835 45.8864C696.653 46.5227 695.722 47.4091 695.04 48.5455C694.358 49.6818 694.017 50.9924 694.017 52.4773V73H685.79Z" fill="#167ABC"/>
<path d="M122 8L122 92" stroke="#167ABC" stroke-width="6.5" stroke-linecap="round"/>
</g>
<defs>
<clipPath id="clip0_36_715">
<rect width="707" height="100" fill="white"/>
</clipPath>
</defs>
</svg>
